# Blender 4.5.2 LTS
# www.blender.org
mtllib podloga.mtl
o Plane.177
v 8.872311 0.000000 10.803464
v 13.075749 0.000000 10.803464
v 8.872311 0.000000 7.303464
v 13.075749 0.000000 7.303464
v 8.872311 0.010000 10.803464
v 13.075749 0.010000 10.803464
v 13.075749 0.010000 7.303464
v 8.872311 0.010000 7.303464
vn 0.5774 -0.5774 0.5774
vn -0.5774 -0.5774 0.5774
vn -0.5774 -0.5774 -0.5774
vn 0.5774 -0.5774 -0.5774
vn 0.5774 0.5774 0.5774
vn 0.5774 0.5774 -0.5774
vn -0.5774 0.5774 -0.5774
vn -0.5774 0.5774 0.5774
vt 0.000000 -0.000000
vt 0.000000 1.000000
vt 0.832652 1.000000
vt 0.832652 -0.000000
s 1
usemtl Laptop.003
f 2/1/1 1/2/2 3/3/3 4/4/4
f 6/1/5 7/4/6 8/3/7 5/2/8
f 4/4/4 3/3/3 8/3/7 7/4/6
f 1/2/2 2/1/1 6/1/5 5/2/8
f 3/3/3 1/2/2 5/2/8 8/3/7
f 2/1/1 4/4/4 7/4/6 6/1/5
