# Blender 3.6.3
# www.blender.org
mtllib untitled.mtl
o Kostka
v -15.000000 -22.500000 25.000000
v -15.000000 -22.500000 -25.000000
v -15.000000 22.500000 -25.000000
v 15.000000 -22.500000 25.000000
v 15.000000 -22.500000 -25.000000
v 15.000000 22.500000 -25.000000
v -15.000000 0.000000 -25.000000
v 15.000000 0.000000 -25.000000
v -15.000000 -22.500000 0.000000
v 15.000000 -22.500000 0.000000
v 15.000000 0.000000 0.000000
v -15.000000 0.000000 0.000000
v -15.000000 -22.500000 12.500000
v 15.000000 -22.500000 12.500000
v 15.000000 -22.500000 -12.500000
v -15.000000 0.000000 -12.500000
v -15.000000 -22.500000 -12.500000
v 15.000000 0.000000 -12.500000
v -15.000000 -22.500000 18.750000
v 15.000000 -22.500000 18.750000
v 15.000000 -22.500000 6.250000
v -15.000000 0.000000 6.250000
v -15.000000 -22.500000 6.250000
v 15.000000 0.000000 6.250000
v -15.000000 -22.500000 -6.250000
v 15.000000 0.000000 -6.250000
v 15.000000 -22.500000 -6.250000
v -15.000000 0.000000 -6.250000
v -15.000000 22.500000 -18.750000
v 15.000000 -22.500000 -18.750000
v -15.000000 0.000000 -18.750000
v -15.000000 -22.500000 -18.750000
v 15.000000 22.500000 -18.750000
v 15.000000 0.000000 -18.750000
v -15.000000 -11.250000 -25.000000
v 15.000000 -11.250000 -25.000000
v -15.000000 -11.250000 0.000000
v 15.000000 -11.250000 0.000000
v -15.000000 -11.250000 12.500000
v 15.000000 -11.250000 12.500000
v 15.000000 -11.250000 -12.500000
v -15.000000 -11.250000 -12.500000
v -15.000000 -11.250000 18.750000
v 15.000000 -11.250000 18.750000
v 15.000000 -11.250000 6.250000
v -15.000000 -11.250000 6.250000
v -15.000000 -11.250000 -6.250000
v 15.000000 -11.250000 -6.250000
v 15.000000 -11.250000 -18.750000
v -15.000000 -11.250000 -18.750000
v -15.000000 11.250000 -25.000000
v 15.000000 11.250000 -25.000000
v 15.000000 11.250000 -12.500000
v -15.000000 11.250000 -12.500000
v -15.000000 11.250000 -6.250000
v 15.000000 11.250000 -6.250000
v 15.000000 11.250000 -18.750000
v -15.000000 11.250000 -18.750000
v -15.000000 5.625000 -25.000000
v 15.000000 5.625000 -25.000000
v 15.000000 5.625000 0.000000
v -15.000000 5.625000 0.000000
v 15.000000 5.625000 -12.500000
v -15.000000 5.625000 -12.500000
v -15.000000 5.625000 -6.250000
v 15.000000 5.625000 -6.250000
v 15.000000 5.625000 -18.750000
v -15.000000 5.625000 -18.750000
v -15.000000 16.875000 -25.000000
v 15.000000 16.875000 -25.000000
v 15.000000 16.875000 -12.500000
v -15.000000 16.875000 -12.500000
v 15.000000 16.875000 -18.750000
v -15.000000 16.875000 -18.750000
v -15.000000 -5.625000 -25.000000
v 15.000000 -5.625000 -25.000000
v -15.000000 -5.625000 0.000000
v 15.000000 -5.625000 0.000000
v -15.000000 -5.625000 12.500000
v 15.000000 -5.625000 12.500000
v 15.000000 -5.625000 -12.500000
v -15.000000 -5.625000 -12.500000
v 15.000000 -5.625000 6.250000
v -15.000000 -5.625000 6.250000
v -15.000000 -5.625000 -6.250000
v 15.000000 -5.625000 -6.250000
v 15.000000 -5.625000 -18.750000
v -15.000000 -5.625000 -18.750000
v -15.000000 -16.875000 -25.000000
v 15.000000 -16.875000 -25.000000
v 15.000000 -16.875000 25.000000
v -15.000000 -16.875000 0.000000
v 15.000000 -16.875000 0.000000
v -15.000000 -16.875000 12.500000
v 15.000000 -16.875000 12.500000
v 15.000000 -16.875000 -12.500000
v -15.000000 -16.875000 -12.500000
v -15.000000 -16.875000 18.750000
v 15.000000 -16.875000 18.750000
v 15.000000 -16.875000 6.250000
v -15.000000 -16.875000 6.250000
v -15.000000 -16.875000 -6.250000
v 15.000000 -16.875000 -6.250000
v 15.000000 -16.875000 -18.750000
v -15.000000 -16.875000 -18.750000
v -15.000000 -16.875000 25.000000
vn -1.0000 -0.0000 -0.0000
vn -0.0000 -0.0000 -1.0000
vn -0.0000 -1.0000 -0.0000
vn 1.0000 -0.0000 -0.0000
vn -0.0000 1.0000 -0.0000
vn -0.0000 -0.0000 1.0000
vt 0.593750 0.218750
vt 0.625000 0.218750
vt 0.625000 0.250000
vt 0.593750 0.250000
vt 0.625000 0.500000
vt 0.593750 0.500000
vt 0.125000 0.718750
vt 0.375000 0.718750
vt 0.375000 0.750000
vt 0.125000 0.750000
vt 0.468750 0.250000
vt 0.500000 0.250000
vt 0.500000 0.500000
vt 0.468750 0.500000
vt 0.468750 0.218750
vt 0.500000 0.218750
vt 0.468750 0.093750
vt 0.500000 0.093750
vt 0.500000 0.125000
vt 0.468750 0.125000
vt 0.468750 0.593750
vt 0.500000 0.593750
vt 0.500000 0.625000
vt 0.468750 0.625000
vt 0.125000 0.593750
vt 0.375000 0.593750
vt 0.375000 0.625000
vt 0.125000 0.625000
vt 0.125000 0.656250
vt 0.375000 0.656250
vt 0.375000 0.687500
vt 0.125000 0.687500
vt 0.125000 0.531250
vt 0.375000 0.531250
vt 0.375000 0.562500
vt 0.125000 0.562500
vt 0.468750 0.531250
vt 0.500000 0.531250
vt 0.500000 0.562500
vt 0.468750 0.562500
vt 0.468750 0.156250
vt 0.500000 0.156250
vt 0.500000 0.187500
vt 0.468750 0.187500
vt 0.500000 0.656250
vt 0.468750 0.656250
vt 0.875000 0.500000
vt 0.875000 0.531250
vt 0.625000 0.531250
vt 0.125000 0.500000
vt 0.375000 0.500000
vt 0.593750 0.531250
vt 0.406250 0.187500
vt 0.437500 0.187500
vt 0.437500 0.218750
vt 0.406250 0.218750
vt 0.406250 0.500000
vt 0.437500 0.500000
vt 0.437500 0.531250
vt 0.406250 0.531250
vt 0.406250 0.562500
vt 0.437500 0.562500
vt 0.437500 0.593750
vt 0.406250 0.593750
vt 0.406250 0.125000
vt 0.437500 0.125000
vt 0.437500 0.156250
vt 0.406250 0.156250
vt 0.406250 0.062500
vt 0.437500 0.062500
vt 0.437500 0.093750
vt 0.406250 0.093750
vt 0.406250 0.625000
vt 0.437500 0.625000
vt 0.437500 0.656250
vt 0.406250 0.656250
vt 0.406250 0.687500
vt 0.437500 0.687500
vt 0.437500 0.718750
vt 0.406250 0.718750
vt 0.406250 0.031250
vt 0.437500 0.031250
vt 0.437500 0.250000
vt 0.406250 0.250000
vt 0.531250 0.187500
vt 0.562500 0.187500
vt 0.562500 0.218750
vt 0.531250 0.218750
vt 0.531250 0.500000
vt 0.562500 0.500000
vt 0.562500 0.531250
vt 0.531250 0.531250
vt 0.531250 0.562500
vt 0.562500 0.562500
vt 0.562500 0.593750
vt 0.531250 0.593750
vt 0.531250 0.156250
vt 0.562500 0.156250
vt 0.531250 0.250000
vt 0.562500 0.250000
vt 0.531250 0.625000
vt 0.531250 0.125000
vt 0.593750 0.187500
vt 0.593750 0.562500
vt 0.468750 0.062500
vt 0.468750 0.687500
vt 0.406250 0.750000
vt 0.406250 1.000000
vt 0.375000 1.000000
vt 0.375000 0.250000
vt 0.375000 0.218750
vt 0.375000 0.093750
vt 0.375000 0.125000
vt 0.375000 0.031250
vt 0.375000 0.062500
vt 0.375000 0.156250
vt 0.375000 0.187500
vt 0.375000 0.000000
vt 0.406250 0.000000
s 0
f 74/1/1 29/2/1 3/3/1 69/4/1
f 69/4/2 3/3/2 6/5/2 70/6/2
f 19/7/3 20/8/3 4/9/3 1/10/3
f 75/11/2 7/12/2 8/13/2 76/14/2
f 88/15/1 31/16/1 7/12/1 75/11/1
f 84/17/1 22/18/1 12/19/1 77/20/1
f 86/21/4 26/22/4 11/23/4 78/24/4
f 25/25/3 27/26/3 10/27/3 9/28/3
f 23/29/3 21/30/3 14/31/3 13/32/3
f 32/33/3 30/34/3 15/35/3 17/36/3
f 87/37/4 34/38/4 18/39/4 81/40/4
f 85/41/1 28/42/1 16/43/1 82/44/1
f 13/32/3 14/31/3 20/8/3 19/7/3
f 9/28/3 10/27/3 21/30/3 23/29/3
f 78/24/4 11/23/4 24/45/4 83/46/4
f 77/20/1 12/19/1 28/42/1 85/41/1
f 17/36/3 15/35/3 27/26/3 25/25/3
f 81/40/4 18/39/4 26/22/4 86/21/4
f 76/14/4 8/13/4 34/38/4 87/37/4
f 6/5/5 3/47/5 29/48/5 33/49/5
f 2/50/3 5/51/3 30/34/3 32/33/3
f 70/6/4 6/5/4 33/49/4 73/52/4
f 82/44/1 16/43/1 31/16/1 88/15/1
f 97/53/1 42/54/1 50/55/1 105/56/1
f 90/57/4 36/58/4 49/59/4 104/60/4
f 96/61/4 41/62/4 48/63/4 103/64/4
f 92/65/1 37/66/1 47/67/1 102/68/1
f 94/69/1 39/70/1 46/71/1 101/72/1
f 93/73/4 38/74/4 45/75/4 100/76/4
f 95/77/4 40/78/4 44/79/4 99/80/4
f 102/68/1 47/67/1 42/54/1 97/53/1
f 104/60/4 49/59/4 41/62/4 96/61/4
f 100/76/4 45/75/4 40/78/4 95/77/4
f 98/81/1 43/82/1 39/70/1 94/69/1
f 103/64/4 48/63/4 38/74/4 93/73/4
f 101/72/1 46/71/1 37/66/1 92/65/1
f 105/56/1 50/55/1 35/83/1 89/84/1
f 89/84/2 35/83/2 36/58/2 90/57/2
f 64/85/1 54/86/1 58/87/1 68/88/1
f 60/89/4 52/90/4 57/91/4 67/92/4
f 63/93/4 53/94/4 56/95/4 66/96/4
f 65/97/1 55/98/1 54/86/1 64/85/1
f 67/92/4 57/91/4 53/94/4 63/93/4
f 59/99/2 51/100/2 52/90/2 60/89/2
f 68/88/1 58/87/1 51/100/1 59/99/1
f 31/16/1 68/88/1 59/99/1 7/12/1
f 7/12/2 59/99/2 60/89/2 8/13/2
f 26/22/4 66/96/4 61/101/4 11/23/4
f 34/38/4 67/92/4 63/93/4 18/39/4
f 28/42/1 65/97/1 64/85/1 16/43/1
f 12/19/1 62/102/1 65/97/1 28/42/1
f 18/39/4 63/93/4 66/96/4 26/22/4
f 8/13/4 60/89/4 67/92/4 34/38/4
f 16/43/1 64/85/1 68/88/1 31/16/1
f 54/86/1 72/103/1 74/1/1 58/87/1
f 52/90/4 70/6/4 73/52/4 57/91/4
f 57/91/4 73/52/4 71/104/4 53/94/4
f 51/100/2 69/4/2 70/6/2 52/90/2
f 58/87/1 74/1/1 69/4/1 51/100/1
f 42/54/1 82/44/1 88/15/1 50/55/1
f 36/58/4 76/14/4 87/37/4 49/59/4
f 41/62/4 81/40/4 86/21/4 48/63/4
f 37/66/1 77/20/1 85/41/1 47/67/1
f 39/70/1 79/105/1 84/17/1 46/71/1
f 38/74/4 78/24/4 83/46/4 45/75/4
f 47/67/1 85/41/1 82/44/1 42/54/1
f 49/59/4 87/37/4 81/40/4 41/62/4
f 45/75/4 83/46/4 80/106/4 40/78/4
f 48/63/4 86/21/4 78/24/4 38/74/4
f 46/71/1 84/17/1 77/20/1 37/66/1
f 50/55/1 88/15/1 75/11/1 35/83/1
f 35/83/2 75/11/2 76/14/2 36/58/2
f 4/9/6 91/107/6 106/108/6 1/109/6
f 20/8/4 99/80/4 91/107/4 4/9/4
f 2/110/2 89/84/2 90/57/2 5/51/2
f 32/111/1 105/56/1 89/84/1 2/110/1
f 23/112/1 101/72/1 92/65/1 9/113/1
f 27/26/4 103/64/4 93/73/4 10/27/4
f 19/114/1 98/81/1 94/69/1 13/115/1
f 21/30/4 100/76/4 95/77/4 14/31/4
f 30/34/4 104/60/4 96/61/4 15/35/4
f 25/116/1 102/68/1 97/53/1 17/117/1
f 1/118/1 106/119/1 98/81/1 19/114/1
f 14/31/4 95/77/4 99/80/4 20/8/4
f 10/27/4 93/73/4 100/76/4 21/30/4
f 13/115/1 94/69/1 101/72/1 23/112/1
f 9/113/1 92/65/1 102/68/1 25/116/1
f 15/35/4 96/61/4 103/64/4 27/26/4
f 5/51/4 90/57/4 104/60/4 30/34/4
f 17/117/1 97/53/1 105/56/1 32/111/1
f 106/119/5 91/107/5 99/80/5 98/81/5
f 98/81/6 99/80/6 44/79/6 43/82/6
f 40/78/5 39/70/5 43/82/5 44/79/5
f 39/70/6 40/78/6 80/106/6 79/105/6
f 79/105/5 80/106/5 83/46/5 84/17/5
f 83/46/6 24/45/6 22/18/6 84/17/6
f 22/18/5 24/45/5 11/23/5 12/19/5
f 11/23/6 61/101/6 62/102/6 12/19/6
f 66/96/5 65/97/5 62/102/5 61/101/5
f 65/97/6 66/96/6 56/95/6 55/98/6
f 53/94/5 54/86/5 55/98/5 56/95/5
f 53/94/6 71/104/6 72/103/6 54/86/6
f 72/103/5 71/104/5 73/52/5 74/1/5
f 33/49/6 29/2/6 74/1/6 73/52/6
