# Blender 4.5.2 LTS
# www.blender.org
mtllib svianyyynowe.mtl
o Plane.002
v 8.875749 0.000000 4.258875
v 8.875749 0.000000 0.162316
v 8.475749 0.000000 4.258875
v 8.475749 0.000000 0.162316
v 8.875749 2.500000 4.258875
v 8.875749 2.500000 0.162316
v 8.475749 2.500000 4.258875
v 8.475749 2.500000 0.162316
vn -0.0000 -1.0000 -0.0000
vn -1.0000 -0.0000 -0.0000
vn -0.0000 -0.0000 1.0000
vn -0.0000 -0.0000 -1.0000
vn 1.0000 -0.0000 -0.0000
vn -0.0000 1.0000 -0.0000
vt 0.963690 0.671847
vt 0.963690 0.859347
vt 0.945382 0.859347
vt 0.707729 0.004150
vt 0.707729 0.246250
vt 0.311018 0.246250
vt 0.311018 0.004150
vt 0.922011 0.421447
vt 0.922011 0.663547
vt 0.883276 0.663547
vt 0.883276 0.421447
vt 0.819995 0.838744
vt 0.819995 0.936039
vt 0.804428 0.936039
vt 0.804428 0.838744
vt 0.945382 0.671847
vt 0.527165 0.254550
vt 0.527165 0.386457
vt 0.311018 0.386457
vt 0.311018 0.254550
vt 0.850724 0.951205
vt 0.828295 0.951205
vt 0.828295 0.721500
vt 0.850724 0.721500
s 1
usemtl Old_painted_wall
f 2/1/1 1/2/1 3/3/1
f 3/4/2 7/5/2 8/6/2 4/7/2
f 1/8/3 5/9/3 7/10/3 3/11/3
f 4/12/4 8/13/4 6/14/4 2/15/4
f 2/1/1 3/3/1 4/16/1
f 2/17/5 6/18/5 5/19/5 1/20/5
f 6/21/6 8/22/6 7/23/6 5/24/6
o Plane.027
v 8.866722 0.000000 0.362316
v 12.875750 0.000000 0.362316
v 8.866722 0.000000 0.162316
v 12.875750 0.000000 0.162316
v 8.866722 2.500000 0.362316
v 12.875750 2.500000 0.362316
v 8.866722 2.500000 0.162316
v 12.875750 2.500000 0.162316
vn -0.0000 -1.0000 -0.0000
vn 1.0000 -0.0000 -0.0000
vn -1.0000 -0.0000 -0.0000
vn -0.0000 -0.0000 -1.0000
vn -0.0000 -0.0000 1.0000
vn -0.0000 1.0000 -0.0000
vt 0.988266 0.421447
vt 0.988266 0.604940
vt 0.979112 0.604940
vt 0.557885 0.983898
vt 0.557885 0.869473
vt 0.567039 0.869473
vt 0.575339 0.983898
vt 0.575339 0.869473
vt 0.584493 0.869473
vt 0.911316 0.254550
vt 0.911316 0.351844
vt 0.755293 0.351844
vt 0.755293 0.254550
vt 0.979112 0.421447
vt 0.567039 0.983898
vt 0.584493 0.983898
vt 0.746993 0.386457
vt 0.535465 0.386457
vt 0.535465 0.254550
vt 0.746993 0.254550
vt 0.535814 0.401933
vt 0.535814 0.413147
vt 0.311018 0.413147
vt 0.311018 0.401933
s 1
usemtl Old_painted_wall
f 10/25/7 9/26/7 11/27/7
f 14/28/8 10/29/8 12/30/8
f 15/31/9 11/32/9 9/33/9
f 11/34/10 15/35/10 16/36/10 12/37/10
f 10/25/7 11/27/7 12/38/7
f 14/28/8 12/30/8 16/39/8
f 15/31/9 9/33/9 13/40/9
f 14/41/11 13/42/11 9/43/11 10/44/11
f 14/45/12 16/46/12 15/47/12 13/48/12
o Plane.169
v 12.100748 2.150000 3.858873
v 11.300749 2.150000 3.858874
v 12.100748 2.150000 4.258873
v 11.300749 2.150000 4.258873
v 12.100748 2.500000 3.858873
v 12.100748 2.500000 4.258873
v 8.875749 0.000000 3.858875
v 9.475748 0.000000 4.258873
v 8.875750 0.000000 4.258875
v 9.475748 2.500000 3.858874
v 8.875749 2.500000 3.858875
v 9.475748 2.500000 4.258873
v 8.875750 2.500000 4.258875
v 11.300749 0.000000 3.858874
v 11.300749 0.000000 4.258873
v 11.300749 2.500000 3.858874
v 11.300749 2.500000 4.258873
v 12.875748 0.000000 3.858873
v 12.875749 0.000000 4.258873
v 12.875748 2.500000 3.858873
v 12.875749 2.500000 4.258873
v 10.275748 2.150000 3.858872
v 9.475748 2.150000 3.858874
v 10.275748 2.150000 4.258873
v 9.475748 2.137777 4.249300
v 10.275748 2.500000 3.858872
v 10.275748 2.500000 4.258873
v 12.100748 0.000000 3.858873
v 12.100749 0.000000 4.258873
v 12.100748 0.800000 3.858873
v 11.304023 0.799749 3.859410
v 12.100749 0.800000 4.258873
v 11.300749 0.800000 4.258873
v 10.275748 0.000000 3.858872
v 9.475748 0.000000 3.858874
v 10.275748 0.000000 4.258873
v 10.275748 0.800000 3.858872
v 9.475748 0.800000 3.858874
v 10.275748 0.800000 4.258873
v 9.475748 0.787777 4.249300
vn -0.0000 1.0000 -0.0000
vn -0.0059 -0.0134 0.9999
vn 0.0123 -0.0000 0.9999
vn -0.0000 -1.0000 -0.0000
vn -1.0000 -0.0000 -0.0000
vn -0.0000 -0.0000 1.0000
vn -0.0000 -0.0000 -1.0000
vn 0.0077 -0.9999 -0.0155
vn 1.0000 -0.0000 -0.0000
vn -0.0003 0.0003 -1.0000
vn -0.0060 0.0060 1.0000
vn 0.0002 -0.0000 -1.0000
vn -0.0002 1.0000 -0.0003
vn -0.0077 0.9999 0.0155
vn 1.0000 0.0012 0.0041
vt 0.534370 0.838745
vt 0.591844 0.838745
vt 0.591844 0.861174
vt 0.534370 0.861174
vt 0.684906 0.773185
vt 0.684906 0.830445
vt 0.554027 0.830445
vt 0.554027 0.771185
vt 0.554027 0.421447
vt 0.554027 0.550327
vt 0.455868 0.830445
vt 0.455868 0.421447
vt 0.716029 0.214800
vt 0.716029 0.187338
vt 0.734337 0.187338
vt 0.504669 0.983898
vt 0.504669 0.869473
vt 0.522977 0.869473
vt 0.819996 0.421447
vt 0.819996 0.830445
vt 0.693206 0.830445
vt 0.693206 0.421447
vt 0.953877 0.154554
vt 0.953877 0.179038
vt 0.897913 0.179038
vt 0.897913 0.154554
vt 0.968416 0.326638
vt 0.986724 0.326638
vt 0.986724 0.373552
vt 0.489512 0.861174
vt 0.489512 0.838745
vt 0.739881 0.838745
vt 0.738786 0.932114
vt 0.693206 0.932108
vt 0.693206 0.838750
vt 0.968416 0.254550
vt 0.986724 0.254550
vt 0.986724 0.290021
vt 0.636702 0.838745
vt 0.636702 0.861174
vt 0.970813 0.421447
vt 0.970813 0.558140
vt 0.930311 0.558140
vt 0.930311 0.421447
vt 0.531277 0.983898
vt 0.531277 0.869473
vt 0.549585 0.869473
vt 0.302718 0.355888
vt 0.302718 0.413147
vt 0.171839 0.413147
vt 0.171839 0.355888
vt 0.826208 0.004150
vt 0.825979 0.060097
vt 0.770244 0.060114
vt 0.770244 0.004150
vt 0.455868 0.861174
vt 0.455868 0.838745
vt 0.684906 0.421447
vt 0.684906 0.552326
vt 0.826208 0.154554
vt 0.826208 0.179038
vt 0.770244 0.179038
vt 0.770244 0.154554
vt 0.968416 0.290021
vt 0.897913 0.004150
vt 0.897913 0.060114
vt 0.434829 0.948295
vt 0.394382 0.948627
vt 0.394382 0.867624
vt 0.434883 0.867624
vt 0.968416 0.410168
vt 0.968416 0.373552
vt 0.995850 0.004150
vt 0.995850 0.179038
vt 0.953877 0.060114
vt 0.953877 0.004150
vt 0.302718 0.004150
vt 0.302718 0.135029
vt 0.171839 0.135029
vt 0.171839 0.004150
vt 0.794856 0.932108
vt 0.749276 0.932114
vt 0.748181 0.838744
vt 0.794856 0.838750
vt 0.734337 0.214800
vt 0.522977 0.983898
vt 0.496370 0.869473
vt 0.496370 0.950476
vt 0.455868 0.950476
vt 0.455868 0.869473
vt 0.549585 0.983898
vt 0.544114 0.401933
vt 0.614167 0.401933
vt 0.550480 0.401933
vt 0.004150 0.413147
vt 0.004150 0.004150
vt 0.716029 0.179038
vt 0.716029 0.004150
vt 0.680158 0.838745
vt 0.680158 0.861174
vt 0.439945 0.701778
vt 0.439945 0.859324
vt 0.394382 0.857898
vt 0.394382 0.700351
vt 0.828295 0.462293
vt 0.874976 0.462293
vt 0.874976 0.619839
vt 0.828295 0.619839
vt 0.828295 0.713200
vt 0.828295 0.421447
vt 0.960116 0.254550
vt 0.960116 0.391242
vt 0.919668 0.391268
vt 0.919615 0.254550
s 0
usemtl Old_painted_wall
f 43/49/13 33/50/13 32/51/13 42/52/13
f 40/53/14 43/54/14 28/55/14 41/56/14
f 24/57/15 56/58/15 41/56/15 28/55/15 29/59/15 25/60/15
f 23/61/16 51/62/16 24/63/16
f 27/64/17 23/65/17 25/66/17
f 35/67/18 37/68/18 22/69/18 45/70/18
f 39/71/19 26/72/19 42/73/19 38/74/19
f 30/75/16 31/76/16 52/77/16
f 26/78/13 28/79/13 43/49/13 42/52/13
f 40/80/20 41/81/20 39/82/20 38/83/20
f 34/84/16 35/85/16 45/86/16
f 32/51/13 33/50/13 22/87/13 21/88/13
f 17/89/17 46/90/17 48/91/17 19/92/17
f 37/93/21 35/94/21 34/95/21
f 19/96/18 22/97/18 33/98/18 20/99/18
f 30/100/22 47/101/22 46/102/22 44/103/22
f 27/104/13 29/105/13 28/79/13 26/78/13
f 52/106/23 55/107/23 56/58/23 24/57/23
f 18/108/19 32/109/19 21/110/19 17/111/19
f 30/75/16 44/112/16 45/86/16
f 50/113/24 53/114/24 38/74/24 42/73/24 32/109/24 18/108/24 47/101/24 30/100/24
f 47/115/25 49/116/25 48/117/25 46/118/25
f 51/119/16 50/120/16 52/77/16
f 23/121/19 27/122/19 26/72/19 39/71/19 54/123/19 51/124/19
f 45/125/18 48/126/18 49/127/18 31/128/18
f 54/129/26 56/130/26 55/131/26 53/132/26
f 23/61/16 24/63/16 25/133/16
f 27/64/17 25/66/17 29/134/17
f 30/75/16 52/77/16 50/120/16
f 34/84/16 45/86/16 44/112/16
f 19/135/16 20/136/16 18/137/16 17/138/16
f 37/93/21 34/95/21 36/139/21
f 30/75/16 45/86/16 31/76/16
f 51/140/16 52/141/16 24/142/16
f 31/128/18 49/127/18 20/99/18 33/98/18 43/143/18 52/144/18
f 44/103/19 46/102/19 17/111/19 21/110/19 36/145/19 34/146/19
f 51/124/19 54/123/19 53/114/19 50/113/19
f 22/87/13 37/147/13 36/148/13 21/88/13
f 41/149/21 56/150/21 54/151/21 39/152/21
f 40/153/17 38/154/17 53/155/17 55/156/17 52/157/17 43/158/17
f 20/159/27 49/160/27 47/161/27 18/162/27
o Plane.170
v 13.075749 0.000000 1.558875
v 13.075749 0.000000 0.362316
v 12.875750 0.000000 1.558875
v 12.875749 0.000000 0.362316
v 13.075749 2.500000 1.558875
v 13.075749 2.500000 0.362316
v 12.875750 2.500000 1.558875
v 12.875749 2.500000 0.362316
v 13.075749 0.000000 3.858873
v 13.075748 0.000000 2.658875
v 12.875749 0.000000 3.858873
v 12.875749 0.000000 2.658875
v 13.075749 2.500000 3.858873
v 13.075748 2.500000 2.658875
v 12.875749 2.500000 3.858873
v 12.875749 2.500000 2.658875
v 13.075749 2.100000 2.658875
v 13.075748 2.100000 1.558875
v 12.875749 2.100000 2.658875
v 12.875749 2.100000 1.558875
vn -0.0000 -1.0000 -0.0000
vn -0.0000 1.0000 -0.0000
vn -0.0000 -0.7071 -0.7071
vn 1.0000 -0.0000 -0.0000
vn -1.0000 -0.0000 -0.0000
vn -0.0000 -0.0000 -1.0000
vn -0.0000 -0.0000 1.0000
vt 0.608876 0.933394
vt 0.608876 0.869473
vt 0.618030 0.869473
vt 0.870238 0.811216
vt 0.859024 0.811216
vt 0.859024 0.721500
vt 0.870239 0.721500
vt 0.968136 0.867647
vt 0.968136 0.992791
vt 0.945382 0.992791
vt 0.945382 0.867647
vt 0.255877 0.933432
vt 0.153322 0.933432
vt 0.153322 0.896139
vt 0.255877 0.896139
vt 0.930311 0.639671
vt 0.930311 0.566439
vt 0.939465 0.566439
vt 0.274382 0.648755
vt 0.274382 0.692052
vt 0.155316 0.692052
vt 0.155316 0.648755
vt 0.600576 0.869473
vt 0.600576 0.966768
vt 0.592793 0.966768
vt 0.592793 0.869473
vt 0.386082 0.933432
vt 0.255877 0.700351
vt 0.386082 0.700351
vt 0.870238 0.951204
vt 0.859024 0.951204
vt 0.859024 0.872896
vt 0.870239 0.872896
vt 0.618030 0.933394
vt 0.914329 0.910759
vt 0.914329 0.671847
vt 0.937082 0.671847
vt 0.937082 0.910759
vt 0.939465 0.639671
vt 0.447568 0.421447
vt 0.447568 0.692052
vt 0.274382 0.421447
vt 0.155316 0.421447
vt 0.004150 0.692052
vt 0.004150 0.421447
vt 0.004150 0.933432
vt 0.004150 0.700351
vt 0.153322 0.700351
vt 0.971990 0.830794
vt 0.971990 0.671847
vt 0.984706 0.671847
vt 0.984706 0.830794
vt 0.906029 0.910759
vt 0.883276 0.910759
vt 0.883276 0.671847
vt 0.906029 0.671847
s 1
usemtl Old_painted_wall
f 58/163/28 57/164/28 59/165/28
f 70/166/29 72/167/29 71/168/29 69/169/29
f 75/170/30 76/171/28 74/172/28 73/173/30
f 61/174/31 70/175/31 73/176/31 74/177/31
f 66/178/28 65/179/28 67/180/28
f 75/181/32 72/182/32 63/183/32 76/184/32
f 60/185/33 64/186/33 62/187/33 58/188/33
f 62/189/31 61/174/31 74/177/31 57/190/31 58/191/31
f 62/192/29 64/193/29 63/194/29 61/195/29
f 58/163/28 59/165/28 60/196/28
f 76/197/34 59/198/34 57/199/34 74/200/34
f 66/178/28 67/180/28 68/201/28
f 67/202/32 71/203/32 72/182/32 75/181/32 68/204/32
f 59/205/32 76/184/32 63/183/32 64/206/32 60/207/32
f 70/175/31 69/208/31 65/209/31 66/210/31 73/176/31
f 65/211/34 69/212/34 71/213/34 67/214/34
f 61/195/29 63/194/29 72/167/29 70/166/29
f 75/215/30 73/216/30 66/217/33 68/218/33
